<svg id="Layer_1" enable-background="new 0 0 512 512" height="512" viewBox="0 0 512 512" width="512" xmlns="http://www.w3.org/2000/svg"><g><path d="m511.069 167.768c3.67-48.24-11.72-92.231-43.332-123.869-31.615-31.638-75.586-47.037-123.773-43.366-47.773 3.641-94.052 25.629-130.312 61.917-36.26 36.289-58.232 82.604-61.87 130.415-.589 7.738-.686 15.366-.306 22.851.037 9.483-.628 113.488-45.282 158.177v.001l-23.138 23.156c-2.928 2.931-2.928 7.68 0 10.611 1.464 1.464 3.382 2.197 5.301 2.197 1.918 0 3.837-.733 5.301-2.197l96.29-96.366c1.671 1.851 3.393 3.665 5.166 5.44s3.585 3.498 5.435 5.17l-73.118 73.175c-.011.011-.023.023-.034.034l-67.206 67.259-10.601-10.611 19.464-19.478c2.928-2.931 2.928-7.68 0-10.611-2.927-2.928-7.673-2.93-10.601 0l-20.181 20.196c-4.109-2.327-8.764-3.572-13.607-3.584-7.387-.018-14.393 2.859-19.631 8.101-3.258 3.261-5.046 7.599-5.035 12.216.011 4.603 1.812 8.934 5.069 12.194l36.104 36.133c3.373 3.376 7.801 5.064 12.226 5.064 4.408 0 8.813-1.677 12.164-5.031 8.974-8.981 10.471-22.662 4.506-33.256l67.929-67.982c19.019-19.035 52.973-32.887 98.19-40.061 29.675-4.709 58.512-5.051 66.582-5.044.739.009 1.479.014 2.221.014 4.585 0 9.223-.177 13.896-.532 47.773-3.64 94.052-25.63 130.312-61.917s58.234-82.606 61.871-130.416zm-456.106 328.584c-.87.87-2.299.857-3.188-.034l-36.105-36.133c-.587-.587-.676-1.268-.677-1.621-.001-.421.11-1.035.643-1.57 2.389-2.39 5.571-3.706 8.961-3.706h.033c3.417.009 6.634 1.35 9.06 3.776l21.202 21.221c4.996 5.001 5.028 13.106.071 18.067zm423.662-265.069-8.563-8.57 19.266-19.28c-2.8 9.483-6.381 18.795-10.703 27.85zm-19.166-19.181-31.997-32.022 31.76-31.785 31.997 32.022zm-74.596-74.654 31.76-31.785 31.997 32.022-31.76 31.785zm21.395 42.632-32.233 32.259-31.997-32.022 32.234-32.259zm-31.998-53.243-31.997-32.022 31.761-31.785 31.997 32.021zm-10.602 10.611-32.233 32.259-31.997-32.022 32.234-32.259zm-42.835 42.869-32.234 32.259-31.997-32.022 32.234-32.259zm-31.997-53.242-31.997-32.022 32.234-32.259 31.997 32.022zm-10.602 10.61-32.234 32.259-31.997-32.022 32.234-32.259zm-.237 85.501-31.761 31.786-31.997-32.022 31.761-31.785zm10.602 10.61 31.997 32.022-31.76 31.785-31.997-32.022zm10.602-10.61 32.234-32.259 31.997 32.022-32.234 32.259zm74.833 10.374 31.997 32.022-32.234 32.259-31.997-32.022zm10.602-10.611 32.233-32.258 31.997 32.022-32.233 32.258zm111.662-58.78-26.463-26.484 22.01-22.027c3.962 15.264 5.496 31.577 4.453 48.511zm-9.655-64.527-27.411 27.432-31.997-32.022 35.06-35.087c10.437 11.704 18.604 25.077 24.348 39.677zm-34.952-50.286-35.058 35.085-31.997-32.021 27.358-27.379c14.434 5.662 27.856 13.752 39.697 24.315zm-94.014-34.289c13.097 0 25.967 1.587 38.299 4.784l-21.942 21.959-26.413-26.433c3.364-.206 6.717-.31 10.056-.31zm5.755 37.353-31.76 31.785-31.997-32.022 31.761-31.785zm-55.219-30.002-19.141 19.155-8.506-8.513c9.063-4.321 18.316-7.871 27.647-10.642zm-41.538 17.961 11.795 11.804-32.234 32.259-16.578-16.592c11.577-10.791 24.033-19.957 37.017-27.471zm-47.619 38.082 16.579 16.591-32.234 32.259-11.795-11.804c7.509-12.995 16.668-25.46 27.45-37.046zm-34.762 50.948 8.505 8.512-19.139 19.153c2.771-9.336 6.318-18.595 10.634-27.665zm19.107 19.122 31.997 32.022-31.761 31.786-31.997-32.022zm-36.777 47.986 26.412 26.433-21.941 21.958c-4.008-15.487-5.482-31.821-4.471-48.391zm-18.599 135.523c7.785-21.38 12.299-44.132 14.911-63.859 4.555 11.179 10.41 21.705 17.509 31.414zm28.255-71.102 27.357-27.379 31.997 32.022-35.057 35.084c-10.555-11.85-18.639-25.282-24.297-39.727zm57.816 89.866c-20.571 3.25-38.818 7.75-54.667 13.467l32.82-32.846c9.952 7.287 20.762 13.264 32.253 17.872-3.391.448-6.867.948-10.406 1.507zm-22.918-39.526 35.059-35.086 31.997 32.022-27.409 27.431c-14.588-5.749-27.951-13.922-39.647-24.367zm55.65 29.571 22.008-22.025 26.462 26.483c-16.92 1.043-33.219-.492-48.47-4.458zm32.61-32.635 31.76-31.785 31.997 32.022-31.76 31.785zm55.095 30.127 19.264-19.279 8.563 8.57c-9.047 4.325-18.351 7.908-27.827 10.709zm41.704-18.044-11.837-11.846 32.234-32.259 16.579 16.592c-11.462 10.693-23.882 19.909-36.976 27.513zm30.999-54.716 32.233-32.258 11.837 11.847c-7.598 13.104-16.807 25.534-27.491 37.004z"/><path d="m482.43 379.11c-3.314-2.483-8.012-1.809-10.494 1.507s-1.808 8.018 1.506 10.502c1.914 1.435 3.724 2.967 5.425 4.587-11.483 11.02-18.147 26.381-18.147 42.5 0 16.107 6.652 31.457 18.119 42.474-10.554 10.102-24.853 16.315-40.575 16.315s-30.021-6.213-40.575-16.315c11.467-11.018 18.12-26.367 18.12-42.474 0-16.106-6.653-31.456-18.12-42.474 10.554-10.102 24.853-16.315 40.575-16.315 2.396 0 4.809.146 7.171.434 4.103.493 7.847-2.427 8.347-6.541.5-4.113-2.427-7.853-6.536-8.354-2.961-.36-5.983-.543-8.983-.543-40.659 0-73.736 33.103-73.736 73.794s33.078 73.793 73.737 73.793 73.736-33.103 73.736-73.794c0-23.47-10.778-45.01-29.57-59.096zm-102.91 59.096c0-11.265 3.182-21.8 8.695-30.752 7.992 8.136 12.602 19.183 12.602 30.752 0 11.57-4.61 22.617-12.601 30.753-5.513-8.953-8.696-19.488-8.696-30.753zm108.793 30.753c-7.991-8.136-12.601-19.182-12.601-30.753 0-11.592 4.628-22.659 12.648-30.799 5.61 9.107 8.647 19.681 8.647 30.799 0 11.265-3.182 21.8-8.694 30.753z"/></g></svg>