<svg id="Layer_1" enable-background="new 0 0 512 512" height="512" viewBox="0 0 512 512" width="512" xmlns="http://www.w3.org/2000/svg"><g><g id="XMLID_175_"><g id="XMLID_177_"><g id="XMLID_179_"><g id="XMLID_180_"><g id="XMLID_181_"><g id="XMLID_182_"><g id="XMLID_183_"><g id="XMLID_184_"><g id="XMLID_185_"><g id="XMLID_186_"><g id="XMLID_187_"><g id="XMLID_188_"><g id="XMLID_189_"><g id="XMLID_190_"><circle id="XMLID_192_" cx="256" cy="256" fill="#8ee26b" r="256"/></g></g></g></g></g></g></g></g></g></g></g></g></g></g><path d="m512 256c0-31.795-5.813-62.227-16.406-90.315l-81.866-81.866-311.045 51.939 36.982 37.451 9.644 282.441 50.05 50.05c18.221 4.116 37.174 6.3 56.64 6.3 141.386 0 256.001-114.615 256.001-256z" fill="#00da80"/><g><g><path d="m131.56 215.02 131.557 75.635 117.153-73.265 6.786-92.02h-262.111z" fill="#fff"/></g><g><path d="m387.06 125.37-.91 12.3-5.88 79.72-117.15 73.27-7.12-4.09v-161.2z" fill="#d1fefb"/></g><path d="m380.27 217.39-17.58 238.26h-213.38l-17.75-240.63 27.532-10.384c34.537-13.026 72.992-10.689 105.697 6.425 26.098 13.656 56.073 18.004 84.976 12.324z" fill="#45f6ff"/><path d="m380.27 217.39-17.58 238.26h-106.69v-248.78c2.97 1.28 5.9 2.68 8.79 4.19 18.63 9.75 39.23 14.75 60 14.75 8.33 0 16.7-.8 24.97-2.43z" fill="#5ecbf1"/><path d="m402.533 137.667h-293.065c-7.237 0-13.104-5.867-13.104-13.104v-33.959c0-7.237 5.867-13.104 13.104-13.104h293.065c7.237 0 13.104 5.867 13.104 13.104v33.959c0 7.237-5.867 13.104-13.104 13.104z" fill="#efefef"/><path d="m415.64 90.6v33.96c0 7.24-5.87 13.11-13.11 13.11h-146.53v-60.17h146.53c7.24 0 13.11 5.87 13.11 13.1z" fill="#e1e1e3"/></g></g></svg>