<svg id="Capa_1" enable-background="new 0 0 512 512" height="512" viewBox="0 0 512 512" width="512" xmlns="http://www.w3.org/2000/svg"><g><g><path d="m423.196 455.12h-334.392c-16.788 0-32.838-6.26-45.192-17.627-12.355-11.368-19.926-26.842-21.32-43.573l-22.063-264.754c-1.546-18.546 4.795-37.039 17.397-50.735s30.503-21.551 49.115-21.551h378.518c18.612 0 36.513 7.856 49.115 21.551s18.943 32.188 17.397 50.735l-22.063 264.754c-1.394 16.73-8.965 32.204-21.32 43.572-12.354 11.368-28.404 17.628-45.192 17.628z" fill="#76cefb"/></g><path d="m445.259 56.88h-189.259v398.24h167.196c16.788 0 32.838-6.26 45.192-17.627 12.355-11.368 19.926-26.842 21.32-43.572l22.063-264.754c1.546-18.546-4.795-37.039-17.397-50.735s-30.503-21.552-49.115-21.552z" fill="#72aef6"/><g><path d="m357.482 231.374h-202.964c-6.977 0-12.633-5.656-12.633-12.633v-27.687c0-33.667 27.391-61.058 61.058-61.058h106.114c33.667 0 61.058 27.391 61.058 61.058v27.687c0 6.978-5.656 12.633-12.633 12.633z" fill="#f4f4fb"/></g><path d="m309.057 129.997h-53.057v101.377h101.482c6.977 0 12.633-5.656 12.633-12.633v-27.687c0-33.666-27.39-61.057-61.058-61.057z" fill="#e5e5fe"/><g><path d="m256 240.875c-8.284 0-15-6.716-15-15v-41.126c0-8.284 6.716-15 15-15s15 6.716 15 15v41.126c0 8.284-6.716 15-15 15z" fill="#ff405c"/></g><path d="m271 225.874v-41.126c0-8.284-6.716-15-15-15v71.127c8.284 0 15-6.716 15-15.001z" fill="#af3345"/><g><path d="m376.503 240.875h-241.006c-8.284 0-15-6.716-15-15v-32.876c0-39.977 32.524-72.502 72.502-72.502h126.003c39.977 0 72.502 32.524 72.502 72.502v32.876c-.001 8.284-6.717 15-15.001 15zm-226.005-30.001h211.005v-17.875c0-23.435-19.066-42.501-42.501-42.501h-126.003c-23.435 0-42.501 19.066-42.501 42.501z" fill="#453d81"/></g><path d="m319.001 120.497h-63.001v30.001h63.001c23.435 0 42.501 19.066 42.501 42.501v17.875h-105.502v30.001h120.503c8.284 0 15-6.716 15-15v-32.876c0-39.978-32.524-72.502-72.502-72.502z" fill="#2e2654"/></g></svg>